<svg xmlns="http://www.w3.org/2000/svg" viewBox="0 -960 960 960"><path fill="#000" d="M40-160v-112q0-34 17.5-62.5T104-378q62-31 126-46.5T360-440q66 0 130 15.5T616-378q29 15 46.5 43.5T680-272v112H40Zm720 0v-112q0-43-23.5-78T674-408q51 6 96 20.5t84 35.5q32 18 49 45t17 61v86H760ZM360-480q-66 0-113-47t-47-113q0-66 47-113t113-47q66 0 113 47t47 113q0 66-47 113t-113 47Zm400-160q0 66-47 113t-113 47q-11 0-28-2.5t-28-5.5q27-32 41.5-70t14.5-82q0-44-14.5-82T544-792q14-5 28-6.5t28-1.5q66 0 113 47t47 113Z"/></svg>
