<svg xmlns="http://www.w3.org/2000/svg" viewBox="0 -960 960 960"><path fill="#000" d="M280-80v-123q-51-20-85.5-63.5T160-360v-120q0-133 93.5-226.5T480-800q133 0 226.5 93.5T800-480v120q0 50-34.5 93.5T680-203v123H280Zm80-80h80v-80h80v80h80v-100l34-14q39-16 62.5-49.5T720-400v-80q0-100-70-170t-170-70q-100 0-170 70t-70 170v80q0 43 23.5 76.5T326-274l34 14v100Zm20-260q25 0 42.5-17.5T440-480q0-25-17.5-42.5T380-540q-25 0-42.5 17.5T320-480q0 25 17.5 42.5T380-420Zm200 0q25 0 42.5-17.5T640-480q0-25-17.5-42.5T580-540q-25 0-42.5 17.5T520-480q0 25 17.5 42.5T580-420ZM480-300l80-80H400l80 80Z"/></svg>
